<mxfile host="app.diagrams.net" agent="Mozilla/5.0 (Windows NT 10.0; Win64; x64) AppleWebKit/537.36 (KHTML, like Gecko) Chrome/131.0.0.0 Safari/537.36" version="26.0.10">
  <diagram name="Page-1" id="WxADeE3paPaO5RvJwRXh">
    <mxGraphModel dx="2691" dy="1647" grid="1" gridSize="10" guides="1" tooltips="1" connect="1" arrows="1" fold="1" page="1" pageScale="1" pageWidth="1100" pageHeight="850" math="0" shadow="0" adaptiveColors="auto">
      <root>
        <mxCell id="0" />
        <mxCell id="1" parent="0" />
        <mxCell id="mEpeG0kxl6d0wTUPfOJw-10" value="" style="group" vertex="1" connectable="0" parent="1">
          <mxGeometry x="-340" y="-31" width="1000" height="730" as="geometry" />
        </mxCell>
        <mxCell id="hZ9lXEjhu3Mr4Sx1a7lu-92" value="VPC" style="points=[[0,0],[0.25,0],[0.5,0],[0.75,0],[1,0],[1,0.25],[1,0.5],[1,0.75],[1,1],[0.75,1],[0.5,1],[0.25,1],[0,1],[0,0.75],[0,0.5],[0,0.25]];outlineConnect=0;gradientColor=none;html=1;whiteSpace=wrap;fontSize=12;fontStyle=0;container=1;pointerEvents=0;collapsible=0;recursiveResize=0;shape=mxgraph.aws4.group;grIcon=mxgraph.aws4.group_vpc2;strokeColor=#8C4FFF;fillColor=none;verticalAlign=top;align=left;spacingLeft=30;fontColor=#AAB7B8;dashed=0;shadow=0;" parent="mEpeG0kxl6d0wTUPfOJw-10" vertex="1">
          <mxGeometry x="109.75609756097563" y="52.14285714285714" width="865.8536585365855" height="660.4761904761904" as="geometry" />
        </mxCell>
        <mxCell id="hZ9lXEjhu3Mr4Sx1a7lu-89" value="AWS Cloud" style="outlineConnect=0;gradientColor=none;html=1;whiteSpace=wrap;fontSize=12;fontStyle=0;shape=mxgraph.aws4.group;grIcon=mxgraph.aws4.group_aws_cloud;strokeColor=#AAB7B8;fillColor=none;verticalAlign=top;align=left;spacingLeft=30;fontColor=#AAB7B8;dashed=0;shadow=0;" parent="hZ9lXEjhu3Mr4Sx1a7lu-92" vertex="1">
          <mxGeometry x="-134.14634146341467" y="-75.60714285714283" width="1057.3170731707319" height="770.8452380952378" as="geometry" />
        </mxCell>
        <mxCell id="hZ9lXEjhu3Mr4Sx1a7lu-98" value="Availability zone us-east-1a" style="outlineConnect=0;gradientColor=none;html=1;whiteSpace=wrap;fontSize=12;fontStyle=0;shape=mxgraph.aws4.group;grIcon=mxgraph.aws4.group_availability_zone;strokeColor=#545B64;fillColor=none;verticalAlign=top;align=left;spacingLeft=30;fontColor=#545B64;dashed=1;shadow=0;" parent="hZ9lXEjhu3Mr4Sx1a7lu-92" vertex="1">
          <mxGeometry x="48.78048780487806" y="95.59523809523807" width="304.87804878048786" height="530.1190476190475" as="geometry" />
        </mxCell>
        <mxCell id="hZ9lXEjhu3Mr4Sx1a7lu-137" value="Public subnet&lt;div&gt;10.10.1.0/24&lt;/div&gt;" style="points=[[0,0],[0.25,0],[0.5,0],[0.75,0],[1,0],[1,0.25],[1,0.5],[1,0.75],[1,1],[0.75,1],[0.5,1],[0.25,1],[0,1],[0,0.75],[0,0.5],[0,0.25]];outlineConnect=0;gradientColor=none;html=1;whiteSpace=wrap;fontSize=12;fontStyle=0;container=1;pointerEvents=0;collapsible=0;recursiveResize=0;shape=mxgraph.aws4.group;grIcon=mxgraph.aws4.group_security_group;grStroke=0;strokeColor=#7AA116;fillColor=#F2F6E8;verticalAlign=top;align=left;spacingLeft=30;fontColor=#248814;dashed=0;shadow=0;" parent="hZ9lXEjhu3Mr4Sx1a7lu-92" vertex="1">
          <mxGeometry x="60.97560975609757" y="139.04761904761904" width="280.48780487804885" height="139.04761904761904" as="geometry" />
        </mxCell>
        <mxCell id="hZ9lXEjhu3Mr4Sx1a7lu-188" value="" style="outlineConnect=0;fontColor=#232F3E;gradientColor=none;fillColor=#8C4FFF;strokeColor=none;dashed=0;verticalLabelPosition=bottom;verticalAlign=top;align=center;html=1;fontSize=12;fontStyle=0;aspect=fixed;pointerEvents=1;shape=mxgraph.aws4.nat_gateway;shadow=0;" parent="hZ9lXEjhu3Mr4Sx1a7lu-137" vertex="1">
          <mxGeometry x="4.865853658536587" y="34.02380952380952" width="28.89583333333333" height="28.89583333333333" as="geometry" />
        </mxCell>
        <mxCell id="hZ9lXEjhu3Mr4Sx1a7lu-138" value="Public subnet&lt;br&gt;10.10.2.0/24" style="points=[[0,0],[0.25,0],[0.5,0],[0.75,0],[1,0],[1,0.25],[1,0.5],[1,0.75],[1,1],[0.75,1],[0.5,1],[0.25,1],[0,1],[0,0.75],[0,0.5],[0,0.25]];outlineConnect=0;gradientColor=none;html=1;whiteSpace=wrap;fontSize=12;fontStyle=0;container=1;pointerEvents=0;collapsible=0;recursiveResize=0;shape=mxgraph.aws4.group;grIcon=mxgraph.aws4.group_security_group;grStroke=0;strokeColor=#7AA116;fillColor=#F2F6E8;verticalAlign=top;align=left;spacingLeft=30;fontColor=#248814;dashed=0;shadow=0;" parent="hZ9lXEjhu3Mr4Sx1a7lu-92" vertex="1">
          <mxGeometry x="548.7804878048781" y="139.04761904761904" width="280.48780487804885" height="139.04761904761904" as="geometry" />
        </mxCell>
        <mxCell id="hZ9lXEjhu3Mr4Sx1a7lu-140" value="&lt;font style=&quot;color: rgb(204, 102, 0); font-size: 11px;&quot;&gt;&lt;b&gt;Auto Scaling Group&lt;/b&gt;&lt;/font&gt;" style="text;html=1;align=center;verticalAlign=middle;resizable=0;points=[];autosize=1;strokeColor=none;fillColor=none;fontColor=#46495D;shadow=0;" parent="hZ9lXEjhu3Mr4Sx1a7lu-138" vertex="1">
          <mxGeometry x="-171.93902439024396" y="82.4165476190476" width="130" height="30" as="geometry" />
        </mxCell>
        <mxCell id="hZ9lXEjhu3Mr4Sx1a7lu-145" value="&lt;font style=&quot;color: rgb(204, 102, 0);&quot;&gt;&lt;b&gt;Web-Sg&lt;/b&gt;&lt;/font&gt;" style="text;html=1;align=center;verticalAlign=middle;resizable=0;points=[];autosize=1;strokeColor=none;fillColor=none;fontColor=#46495D;shadow=0;" parent="hZ9lXEjhu3Mr4Sx1a7lu-138" vertex="1">
          <mxGeometry x="-281.00000000000006" y="86.07142857142857" width="70" height="30" as="geometry" />
        </mxCell>
        <mxCell id="hZ9lXEjhu3Mr4Sx1a7lu-139" value="" style="outlineConnect=0;dashed=0;verticalLabelPosition=bottom;verticalAlign=top;align=center;html=1;shape=mxgraph.aws3.auto_scaling;fillColor=#F58534;gradientColor=none;strokeColor=#788AA3;fontColor=#46495D;shadow=0;" parent="hZ9lXEjhu3Mr4Sx1a7lu-92" vertex="1">
          <mxGeometry x="414.63" y="182.5" width="50" height="47.5" as="geometry" />
        </mxCell>
        <mxCell id="hZ9lXEjhu3Mr4Sx1a7lu-142" value="" style="verticalLabelPosition=bottom;verticalAlign=top;html=1;shape=mxgraph.basic.patternFillRect;fillStyle=hor;step=5;fillStrokeWidth=0.2;fillStrokeColor=#dddddd;strokeColor=#FF9933;fontColor=#46495D;fillColor=none;dashed=1;strokeWidth=2;shadow=0;" parent="hZ9lXEjhu3Mr4Sx1a7lu-92" vertex="1">
          <mxGeometry x="110" y="182.5" width="670.49" height="78.21" as="geometry" />
        </mxCell>
        <mxCell id="hZ9lXEjhu3Mr4Sx1a7lu-160" value="Private subnet&lt;br&gt;10.10.5.0/24" style="points=[[0,0],[0.25,0],[0.5,0],[0.75,0],[1,0],[1,0.25],[1,0.5],[1,0.75],[1,1],[0.75,1],[0.5,1],[0.25,1],[0,1],[0,0.75],[0,0.5],[0,0.25]];outlineConnect=0;gradientColor=none;html=1;whiteSpace=wrap;fontSize=12;fontStyle=0;container=1;pointerEvents=0;collapsible=0;recursiveResize=0;shape=mxgraph.aws4.group;grIcon=mxgraph.aws4.group_security_group;grStroke=0;strokeColor=#00A4A6;fillColor=#E6F6F7;verticalAlign=top;align=left;spacingLeft=30;fontColor=#147EBA;dashed=0;shadow=0;" parent="hZ9lXEjhu3Mr4Sx1a7lu-92" vertex="1">
          <mxGeometry x="60.97560975609757" y="469.28571428571416" width="280.48780487804885" height="139.04761904761904" as="geometry" />
        </mxCell>
        <mxCell id="hZ9lXEjhu3Mr4Sx1a7lu-150" value="Private subnet&lt;div&gt;10.10.3.0/24&lt;/div&gt;" style="points=[[0,0],[0.25,0],[0.5,0],[0.75,0],[1,0],[1,0.25],[1,0.5],[1,0.75],[1,1],[0.75,1],[0.5,1],[0.25,1],[0,1],[0,0.75],[0,0.5],[0,0.25]];outlineConnect=0;gradientColor=none;html=1;whiteSpace=wrap;fontSize=12;fontStyle=0;container=1;pointerEvents=0;collapsible=0;recursiveResize=0;shape=mxgraph.aws4.group;grIcon=mxgraph.aws4.group_security_group;grStroke=0;strokeColor=#00A4A6;fillColor=#E6F6F7;verticalAlign=top;align=left;spacingLeft=30;fontColor=#147EBA;dashed=0;shadow=0;" parent="hZ9lXEjhu3Mr4Sx1a7lu-92" vertex="1">
          <mxGeometry x="60.97560975609757" y="312.85714285714283" width="280.48780487804885" height="130.35714285714286" as="geometry" />
        </mxCell>
        <mxCell id="hZ9lXEjhu3Mr4Sx1a7lu-149" value="Private subnet&lt;div&gt;10.10.4.0/24&lt;/div&gt;" style="points=[[0,0],[0.25,0],[0.5,0],[0.75,0],[1,0],[1,0.25],[1,0.5],[1,0.75],[1,1],[0.75,1],[0.5,1],[0.25,1],[0,1],[0,0.75],[0,0.5],[0,0.25]];outlineConnect=0;gradientColor=none;html=1;whiteSpace=wrap;fontSize=12;fontStyle=0;container=1;pointerEvents=0;collapsible=0;recursiveResize=0;shape=mxgraph.aws4.group;grIcon=mxgraph.aws4.group_security_group;grStroke=0;strokeColor=#00A4A6;fillColor=#E6F6F7;verticalAlign=top;align=left;spacingLeft=30;fontColor=#147EBA;dashed=0;shadow=0;" parent="hZ9lXEjhu3Mr4Sx1a7lu-92" vertex="1">
          <mxGeometry x="548.7804878048781" y="312.85714285714283" width="280.48780487804885" height="130.35714285714286" as="geometry" />
        </mxCell>
        <mxCell id="hZ9lXEjhu3Mr4Sx1a7lu-99" value="Availability zone us-east-1b" style="outlineConnect=0;gradientColor=none;html=1;whiteSpace=wrap;fontSize=12;fontStyle=0;shape=mxgraph.aws4.group;grIcon=mxgraph.aws4.group_availability_zone;strokeColor=#545B64;fillColor=none;verticalAlign=top;align=left;spacingLeft=30;fontColor=#545B64;dashed=1;shadow=0;" parent="hZ9lXEjhu3Mr4Sx1a7lu-92" vertex="1">
          <mxGeometry x="536.5853658536587" y="95.59523809523807" width="304.87804878048786" height="530.1190476190475" as="geometry" />
        </mxCell>
        <mxCell id="hZ9lXEjhu3Mr4Sx1a7lu-151" value="" style="verticalLabelPosition=bottom;verticalAlign=top;html=1;shape=mxgraph.basic.patternFillRect;fillStyle=hor;step=5;fillStrokeWidth=0.2;fillStrokeColor=#dddddd;strokeColor=#FF9933;fontColor=#46495D;fillColor=none;dashed=1;strokeWidth=2;shadow=0;" parent="hZ9lXEjhu3Mr4Sx1a7lu-92" vertex="1">
          <mxGeometry x="109.75609756097563" y="351.52976190476187" width="670.7317073170732" height="74.30357142857143" as="geometry" />
        </mxCell>
        <mxCell id="hZ9lXEjhu3Mr4Sx1a7lu-153" value="" style="points=[[0,0,0],[0.25,0,0],[0.5,0,0],[0.75,0,0],[1,0,0],[0,1,0],[0.25,1,0],[0.5,1,0],[0.75,1,0],[1,1,0],[0,0.25,0],[0,0.5,0],[0,0.75,0],[1,0.25,0],[1,0.5,0],[1,0.75,0]];outlineConnect=0;fontColor=#232F3E;fillColor=#ED7100;strokeColor=#ffffff;dashed=0;verticalLabelPosition=bottom;verticalAlign=top;align=center;html=1;fontSize=12;fontStyle=0;aspect=fixed;shape=mxgraph.aws4.resourceIcon;resIcon=mxgraph.aws4.ec2;shadow=0;" parent="hZ9lXEjhu3Mr4Sx1a7lu-92" vertex="1">
          <mxGeometry x="655.7926829268292" y="361.74107142857133" width="47.363095238095234" height="47.363095238095234" as="geometry" />
        </mxCell>
        <mxCell id="hZ9lXEjhu3Mr4Sx1a7lu-152" value="" style="points=[[0,0,0],[0.25,0,0],[0.5,0,0],[0.75,0,0],[1,0,0],[0,1,0],[0.25,1,0],[0.5,1,0],[0.75,1,0],[1,1,0],[0,0.25,0],[0,0.5,0],[0,0.75,0],[1,0.25,0],[1,0.5,0],[1,0.75,0]];outlineConnect=0;fontColor=#232F3E;fillColor=#ED7100;strokeColor=#ffffff;dashed=0;verticalLabelPosition=bottom;verticalAlign=top;align=center;html=1;fontSize=12;fontStyle=0;aspect=fixed;shape=mxgraph.aws4.resourceIcon;resIcon=mxgraph.aws4.ec2;shadow=0;" parent="hZ9lXEjhu3Mr4Sx1a7lu-92" vertex="1">
          <mxGeometry x="167.98780487804868" y="361.74107142857133" width="47.363095238095234" height="47.363095238095234" as="geometry" />
        </mxCell>
        <mxCell id="hZ9lXEjhu3Mr4Sx1a7lu-154" value="&lt;font style=&quot;color: rgb(204, 102, 0);&quot;&gt;&lt;b&gt;App-Sg&lt;/b&gt;&lt;/font&gt;" style="text;html=1;align=center;verticalAlign=middle;resizable=0;points=[];autosize=1;strokeColor=none;fillColor=none;fontColor=#46495D;shadow=0;" parent="hZ9lXEjhu3Mr4Sx1a7lu-92" vertex="1">
          <mxGeometry x="271.4673170731708" y="395.8294047619047" width="70" height="30" as="geometry" />
        </mxCell>
        <mxCell id="hZ9lXEjhu3Mr4Sx1a7lu-157" value="&lt;font style=&quot;color: rgb(204, 102, 0); font-size: 11px;&quot;&gt;&lt;b&gt;Auto Scaling Group&lt;/b&gt;&lt;/font&gt;" style="text;html=1;align=center;verticalAlign=middle;resizable=0;points=[];autosize=1;strokeColor=none;fillColor=none;fontColor=#46495D;shadow=0;" parent="hZ9lXEjhu3Mr4Sx1a7lu-92" vertex="1">
          <mxGeometry x="381.7317073170732" y="395.9494047619047" width="130" height="30" as="geometry" />
        </mxCell>
        <mxCell id="hZ9lXEjhu3Mr4Sx1a7lu-161" value="Private subnet&lt;br&gt;10.10.6.0/24" style="points=[[0,0],[0.25,0],[0.5,0],[0.75,0],[1,0],[1,0.25],[1,0.5],[1,0.75],[1,1],[0.75,1],[0.5,1],[0.25,1],[0,1],[0,0.75],[0,0.5],[0,0.25]];outlineConnect=0;gradientColor=none;html=1;whiteSpace=wrap;fontSize=12;fontStyle=0;container=1;pointerEvents=0;collapsible=0;recursiveResize=0;shape=mxgraph.aws4.group;grIcon=mxgraph.aws4.group_security_group;grStroke=0;strokeColor=#00A4A6;fillColor=#E6F6F7;verticalAlign=top;align=left;spacingLeft=30;fontColor=#147EBA;dashed=0;shadow=0;" parent="hZ9lXEjhu3Mr4Sx1a7lu-92" vertex="1">
          <mxGeometry x="548.7804878048781" y="469.28571428571416" width="280.48780487804885" height="139.04761904761904" as="geometry" />
        </mxCell>
        <mxCell id="hZ9lXEjhu3Mr4Sx1a7lu-163" value="" style="points=[[0,0,0],[0.25,0,0],[0.5,0,0],[0.75,0,0],[1,0,0],[0,1,0],[0.25,1,0],[0.5,1,0],[0.75,1,0],[1,1,0],[0,0.25,0],[0,0.5,0],[0,0.75,0],[1,0.25,0],[1,0.5,0],[1,0.75,0]];outlineConnect=0;fontColor=#232F3E;fillColor=#C925D1;strokeColor=#ffffff;dashed=0;verticalLabelPosition=bottom;verticalAlign=top;align=center;html=1;fontSize=12;fontStyle=0;aspect=fixed;shape=mxgraph.aws4.resourceIcon;resIcon=mxgraph.aws4.rds;shadow=0;" parent="hZ9lXEjhu3Mr4Sx1a7lu-161" vertex="1">
          <mxGeometry x="71.03658536585368" y="52.14285714285714" width="50.40476190476189" height="50.40476190476189" as="geometry" />
        </mxCell>
        <mxCell id="hZ9lXEjhu3Mr4Sx1a7lu-162" value="" style="points=[[0,0,0],[0.25,0,0],[0.5,0,0],[0.75,0,0],[1,0,0],[0,1,0],[0.25,1,0],[0.5,1,0],[0.75,1,0],[1,1,0],[0,0.25,0],[0,0.5,0],[0,0.75,0],[1,0.25,0],[1,0.5,0],[1,0.75,0]];outlineConnect=0;fontColor=#232F3E;fillColor=#C925D1;strokeColor=#ffffff;dashed=0;verticalLabelPosition=bottom;verticalAlign=top;align=center;html=1;fontSize=12;fontStyle=0;aspect=fixed;shape=mxgraph.aws4.resourceIcon;resIcon=mxgraph.aws4.rds;shadow=0;" parent="hZ9lXEjhu3Mr4Sx1a7lu-92" vertex="1">
          <mxGeometry x="165.85365853658539" y="521.4285714285714" width="50.40476190476189" height="50.40476190476189" as="geometry" />
        </mxCell>
        <mxCell id="hZ9lXEjhu3Mr4Sx1a7lu-164" style="edgeStyle=orthogonalEdgeStyle;rounded=0;orthogonalLoop=1;jettySize=auto;html=1;entryX=0;entryY=0.5;entryDx=0;entryDy=0;entryPerimeter=0;strokeColor=#3399FF;fontColor=#46495D;fillColor=#B2C9AB;dashed=1;shadow=0;" parent="hZ9lXEjhu3Mr4Sx1a7lu-92" source="hZ9lXEjhu3Mr4Sx1a7lu-162" target="hZ9lXEjhu3Mr4Sx1a7lu-163" edge="1">
          <mxGeometry relative="1" as="geometry" />
        </mxCell>
        <mxCell id="hZ9lXEjhu3Mr4Sx1a7lu-165" value="&lt;font style=&quot;color: rgb(51, 153, 255);&quot;&gt;&lt;b&gt;Db-Sg&lt;/b&gt;&lt;/font&gt;" style="text;html=1;align=center;verticalAlign=middle;resizable=0;points=[];autosize=1;strokeColor=none;fillColor=none;fontColor=#46495D;shadow=0;" parent="hZ9lXEjhu3Mr4Sx1a7lu-92" vertex="1">
          <mxGeometry x="398.7804878048781" y="561.4047619047618" width="60" height="30" as="geometry" />
        </mxCell>
        <mxCell id="hZ9lXEjhu3Mr4Sx1a7lu-172" value="" style="edgeStyle=orthogonalEdgeStyle;rounded=0;orthogonalLoop=1;jettySize=auto;html=1;shadow=0;" parent="hZ9lXEjhu3Mr4Sx1a7lu-92" source="hZ9lXEjhu3Mr4Sx1a7lu-146" target="hZ9lXEjhu3Mr4Sx1a7lu-139" edge="1">
          <mxGeometry relative="1" as="geometry" />
        </mxCell>
        <mxCell id="hZ9lXEjhu3Mr4Sx1a7lu-146" value="" style="outlineConnect=0;dashed=0;verticalLabelPosition=bottom;verticalAlign=top;align=center;html=1;shape=mxgraph.aws3.application_load_balancer;fillColor=#F58534;gradientColor=none;strokeColor=#788AA3;fontColor=#46495D;shadow=0;" parent="hZ9lXEjhu3Mr4Sx1a7lu-92" vertex="1">
          <mxGeometry x="419.37" y="59.1" width="40.63" height="40.9" as="geometry" />
        </mxCell>
        <mxCell id="hZ9lXEjhu3Mr4Sx1a7lu-176" style="edgeStyle=orthogonalEdgeStyle;rounded=0;orthogonalLoop=1;jettySize=auto;html=1;exitX=0.5;exitY=1;exitDx=0;exitDy=0;exitPerimeter=0;entryX=0.14;entryY=0.125;entryDx=0;entryDy=0;entryPerimeter=0;shadow=0;" parent="hZ9lXEjhu3Mr4Sx1a7lu-92" source="hZ9lXEjhu3Mr4Sx1a7lu-151" target="hZ9lXEjhu3Mr4Sx1a7lu-166" edge="1">
          <mxGeometry relative="1" as="geometry">
            <Array as="points">
              <mxPoint x="445.12195121951225" y="501.44047619047615" />
              <mxPoint x="203.65853658536588" y="501.44047619047615" />
            </Array>
          </mxGeometry>
        </mxCell>
        <mxCell id="hZ9lXEjhu3Mr4Sx1a7lu-179" value="&lt;b&gt;Internet Gateway&lt;/b&gt;" style="text;html=1;align=center;verticalAlign=middle;resizable=0;points=[];autosize=1;strokeColor=none;fillColor=none;shadow=0;" parent="hZ9lXEjhu3Mr4Sx1a7lu-92" vertex="1">
          <mxGeometry x="373.17073170731715" y="23.464285714285708" width="120" height="30" as="geometry" />
        </mxCell>
        <mxCell id="hZ9lXEjhu3Mr4Sx1a7lu-185" value="&lt;b&gt;&lt;font style=&quot;font-size: 13px;&quot;&gt;Web Tier&lt;/font&gt;&lt;/b&gt;" style="text;html=1;align=center;verticalAlign=middle;resizable=0;points=[];autosize=1;strokeColor=none;fillColor=none;fontColor=#46495D;horizontal=0;rotation=0;shadow=0;" parent="hZ9lXEjhu3Mr4Sx1a7lu-92" vertex="1">
          <mxGeometry y="160.7738095238095" width="40" height="70" as="geometry" />
        </mxCell>
        <mxCell id="hZ9lXEjhu3Mr4Sx1a7lu-187" value="&lt;b&gt;&lt;font style=&quot;font-size: 13px;&quot;&gt;Database Tier&lt;/font&gt;&lt;/b&gt;" style="text;html=1;align=center;verticalAlign=middle;resizable=0;points=[];autosize=1;strokeColor=none;fillColor=none;fontColor=#46495D;rotation=270;shadow=0;" parent="hZ9lXEjhu3Mr4Sx1a7lu-92" vertex="1">
          <mxGeometry x="-42.6829268292683" y="521.4285714285714" width="110" height="30" as="geometry" />
        </mxCell>
        <mxCell id="hZ9lXEjhu3Mr4Sx1a7lu-166" value="" style="verticalLabelPosition=bottom;verticalAlign=top;html=1;shape=mxgraph.basic.patternFillRect;fillStyle=hor;step=5;fillStrokeWidth=0.2;fillStrokeColor=#dddddd;strokeColor=#3399FF;fontColor=#46495D;fillColor=none;dashed=1;strokeWidth=2;shadow=0;" parent="hZ9lXEjhu3Mr4Sx1a7lu-92" vertex="1">
          <mxGeometry x="109.75609756097563" y="511.8690476190475" width="670.7317073170732" height="79.08333333333331" as="geometry" />
        </mxCell>
        <mxCell id="hZ9lXEjhu3Mr4Sx1a7lu-189" value="&lt;font style=&quot;font-size: 9px;&quot;&gt;&lt;b style=&quot;&quot;&gt;NAT&lt;/b&gt;&lt;/font&gt;" style="text;html=1;align=center;verticalAlign=middle;resizable=0;points=[];autosize=1;strokeColor=none;fillColor=none;shadow=0;" parent="hZ9lXEjhu3Mr4Sx1a7lu-92" vertex="1">
          <mxGeometry x="60.34146341463415" y="195.1458333333333" width="40" height="30" as="geometry" />
        </mxCell>
        <mxCell id="hZ9lXEjhu3Mr4Sx1a7lu-203" value="&lt;b&gt;EC2&lt;/b&gt;" style="text;html=1;align=center;verticalAlign=middle;resizable=0;points=[];autosize=1;strokeColor=none;fillColor=none;shadow=0;" parent="hZ9lXEjhu3Mr4Sx1a7lu-92" vertex="1">
          <mxGeometry x="171.03658536585368" y="238.1190476190476" width="50" height="30" as="geometry" />
        </mxCell>
        <mxCell id="hZ9lXEjhu3Mr4Sx1a7lu-143" value="" style="points=[[0,0,0],[0.25,0,0],[0.5,0,0],[0.75,0,0],[1,0,0],[0,1,0],[0.25,1,0],[0.5,1,0],[0.75,1,0],[1,1,0],[0,0.25,0],[0,0.5,0],[0,0.75,0],[1,0.25,0],[1,0.5,0],[1,0.75,0]];outlineConnect=0;fontColor=#232F3E;fillColor=#ED7100;strokeColor=#ffffff;dashed=0;verticalLabelPosition=bottom;verticalAlign=top;align=center;html=1;fontSize=12;fontStyle=0;aspect=fixed;shape=mxgraph.aws4.resourceIcon;resIcon=mxgraph.aws4.ec2;shadow=0;" parent="hZ9lXEjhu3Mr4Sx1a7lu-92" vertex="1">
          <mxGeometry x="167.98780487804868" y="194.44940476190473" width="47.363095238095234" height="47.363095238095234" as="geometry" />
        </mxCell>
        <mxCell id="hZ9lXEjhu3Mr4Sx1a7lu-210" value="&lt;b&gt;EC2&lt;/b&gt;" style="text;html=1;align=center;verticalAlign=middle;resizable=0;points=[];autosize=1;strokeColor=none;fillColor=none;shadow=0;" parent="hZ9lXEjhu3Mr4Sx1a7lu-92" vertex="1">
          <mxGeometry x="170.7317073170732" y="404.7589285714285" width="50" height="30" as="geometry" />
        </mxCell>
        <mxCell id="mEpeG0kxl6d0wTUPfOJw-11" value="&lt;b&gt;Gateway&lt;/b&gt;" style="text;html=1;align=center;verticalAlign=middle;resizable=0;points=[];autosize=1;strokeColor=none;fillColor=none;" vertex="1" parent="hZ9lXEjhu3Mr4Sx1a7lu-92">
          <mxGeometry x="42.78390243902439" y="204.60714285714286" width="70" height="30" as="geometry" />
        </mxCell>
        <mxCell id="hZ9lXEjhu3Mr4Sx1a7lu-202" value="&lt;b&gt;S3&lt;/b&gt;" style="text;html=1;align=center;verticalAlign=middle;resizable=0;points=[];autosize=1;strokeColor=none;fillColor=none;shadow=0;" parent="hZ9lXEjhu3Mr4Sx1a7lu-92" vertex="1">
          <mxGeometry x="-83.6807317073171" y="315.7404761904761" width="40" height="30" as="geometry" />
        </mxCell>
        <mxCell id="hZ9lXEjhu3Mr4Sx1a7lu-198" value="" style="outlineConnect=0;fontColor=#232F3E;gradientColor=none;strokeColor=#ffffff;fillColor=#232F3E;dashed=0;verticalLabelPosition=middle;verticalAlign=bottom;align=center;html=1;whiteSpace=wrap;fontSize=10;fontStyle=1;spacing=3;shape=mxgraph.aws4.productIcon;prIcon=mxgraph.aws4.s3;shadow=0;" parent="hZ9lXEjhu3Mr4Sx1a7lu-92" vertex="1">
          <mxGeometry x="-90.48073170731712" y="263.3166666666666" width="55.60975609756099" height="49.535714285714285" as="geometry" />
        </mxCell>
        <mxCell id="hZ9lXEjhu3Mr4Sx1a7lu-201" value="" style="edgeStyle=orthogonalEdgeStyle;rounded=0;orthogonalLoop=1;jettySize=auto;html=1;entryX=0.994;entryY=0.356;entryDx=0;entryDy=0;entryPerimeter=0;exitX=0;exitY=0.75;exitDx=0;exitDy=0;exitPerimeter=0;shadow=0;" parent="hZ9lXEjhu3Mr4Sx1a7lu-92" source="hZ9lXEjhu3Mr4Sx1a7lu-143" target="hZ9lXEjhu3Mr4Sx1a7lu-198" edge="1">
          <mxGeometry relative="1" as="geometry" />
        </mxCell>
        <mxCell id="hZ9lXEjhu3Mr4Sx1a7lu-91" value="Region" style="points=[[0,0],[0.25,0],[0.5,0],[0.75,0],[1,0],[1,0.25],[1,0.5],[1,0.75],[1,1],[0.75,1],[0.5,1],[0.25,1],[0,1],[0,0.75],[0,0.5],[0,0.25]];outlineConnect=0;gradientColor=none;html=1;whiteSpace=wrap;fontSize=12;fontStyle=0;container=1;pointerEvents=0;collapsible=0;recursiveResize=0;shape=mxgraph.aws4.group;grIcon=mxgraph.aws4.group_region;strokeColor=#00A4A6;fillColor=none;verticalAlign=top;align=left;spacingLeft=30;fontColor=#147EBA;dashed=1;shadow=0;" parent="mEpeG0kxl6d0wTUPfOJw-10" vertex="1">
          <mxGeometry width="1000.0000000000001" height="730" as="geometry" />
        </mxCell>
        <mxCell id="hZ9lXEjhu3Mr4Sx1a7lu-204" value="&lt;b&gt;EC2&lt;/b&gt;" style="text;html=1;align=center;verticalAlign=middle;resizable=0;points=[];autosize=1;strokeColor=none;fillColor=none;shadow=0;" parent="hZ9lXEjhu3Mr4Sx1a7lu-91" vertex="1">
          <mxGeometry x="765.8536585365855" y="289.610119047619" width="50" height="30" as="geometry" />
        </mxCell>
        <mxCell id="hZ9lXEjhu3Mr4Sx1a7lu-141" value="" style="points=[[0,0,0],[0.25,0,0],[0.5,0,0],[0.75,0,0],[1,0,0],[0,1,0],[0.25,1,0],[0.5,1,0],[0.75,1,0],[1,1,0],[0,0.25,0],[0,0.5,0],[0,0.75,0],[1,0.25,0],[1,0.5,0],[1,0.75,0]];outlineConnect=0;fontColor=#232F3E;fillColor=#ED7100;strokeColor=#ffffff;dashed=0;verticalLabelPosition=bottom;verticalAlign=top;align=center;html=1;fontSize=12;fontStyle=0;aspect=fixed;shape=mxgraph.aws4.resourceIcon;resIcon=mxgraph.aws4.ec2;shadow=0;" parent="hZ9lXEjhu3Mr4Sx1a7lu-91" vertex="1">
          <mxGeometry x="762.8048780487804" y="246.5922619047619" width="47.36309523809524" height="47.36309523809524" as="geometry" />
        </mxCell>
        <mxCell id="hZ9lXEjhu3Mr4Sx1a7lu-213" value="&lt;b&gt;EC2&lt;/b&gt;" style="text;html=1;align=center;verticalAlign=middle;resizable=0;points=[];autosize=1;strokeColor=none;fillColor=none;shadow=0;" parent="hZ9lXEjhu3Mr4Sx1a7lu-91" vertex="1">
          <mxGeometry x="768.2926829268293" y="457.11904761904754" width="50" height="30" as="geometry" />
        </mxCell>
        <mxCell id="hZ9lXEjhu3Mr4Sx1a7lu-214" value="&lt;b&gt;RDS&lt;/b&gt;" style="text;html=1;align=center;verticalAlign=middle;resizable=0;points=[];autosize=1;strokeColor=none;fillColor=none;shadow=0;" parent="hZ9lXEjhu3Mr4Sx1a7lu-91" vertex="1">
          <mxGeometry x="280.48780487804885" y="620.5" width="50" height="30" as="geometry" />
        </mxCell>
        <mxCell id="hZ9lXEjhu3Mr4Sx1a7lu-186" value="&lt;b&gt;&lt;font style=&quot;font-size: 13px;&quot;&gt;Application Tier&lt;/font&gt;&lt;/b&gt;" style="text;html=1;align=center;verticalAlign=middle;resizable=0;points=[];autosize=1;strokeColor=none;fillColor=none;fontColor=#46495D;rotation=270;shadow=0;" parent="mEpeG0kxl6d0wTUPfOJw-10" vertex="1">
          <mxGeometry x="54.878048780487816" y="408.4523809523809" width="120" height="30" as="geometry" />
        </mxCell>
        <mxCell id="hZ9lXEjhu3Mr4Sx1a7lu-215" value="&lt;b&gt;RDS&lt;/b&gt;" style="text;html=1;align=center;verticalAlign=middle;resizable=0;points=[];autosize=1;strokeColor=none;fillColor=none;shadow=0;" parent="mEpeG0kxl6d0wTUPfOJw-10" vertex="1">
          <mxGeometry x="735.3658536585367" y="620.5" width="50" height="30" as="geometry" />
        </mxCell>
        <mxCell id="mEpeG0kxl6d0wTUPfOJw-17" value="" style="edgeStyle=orthogonalEdgeStyle;rounded=0;orthogonalLoop=1;jettySize=auto;html=1;" edge="1" parent="mEpeG0kxl6d0wTUPfOJw-10" source="mEpeG0kxl6d0wTUPfOJw-15" target="hZ9lXEjhu3Mr4Sx1a7lu-156">
          <mxGeometry relative="1" as="geometry" />
        </mxCell>
        <mxCell id="mEpeG0kxl6d0wTUPfOJw-15" value="" style="outlineConnect=0;dashed=0;verticalLabelPosition=bottom;verticalAlign=top;align=center;html=1;shape=mxgraph.aws3.application_load_balancer;fillColor=#F58534;gradientColor=none;strokeColor=#788AA3;fontColor=#46495D;shadow=0;" vertex="1" parent="mEpeG0kxl6d0wTUPfOJw-10">
          <mxGeometry x="529.9960975609756" y="344.55285714285714" width="40.63" height="40.9" as="geometry" />
        </mxCell>
        <mxCell id="mEpeG0kxl6d0wTUPfOJw-16" value="" style="edgeStyle=orthogonalEdgeStyle;rounded=0;orthogonalLoop=1;jettySize=auto;html=1;" edge="1" parent="mEpeG0kxl6d0wTUPfOJw-10" target="mEpeG0kxl6d0wTUPfOJw-15">
          <mxGeometry relative="1" as="geometry">
            <mxPoint x="550" y="311" as="sourcePoint" />
          </mxGeometry>
        </mxCell>
        <mxCell id="hZ9lXEjhu3Mr4Sx1a7lu-156" value="" style="outlineConnect=0;dashed=0;verticalLabelPosition=bottom;verticalAlign=top;align=center;html=1;shape=mxgraph.aws3.auto_scaling;fillColor=#F58534;gradientColor=none;strokeColor=#788AA3;fontColor=#46495D;shadow=0;" parent="mEpeG0kxl6d0wTUPfOJw-10" vertex="1">
          <mxGeometry x="525.3160975609757" y="408.45285714285717" width="50" height="49.77" as="geometry" />
        </mxCell>
        <mxCell id="hZ9lXEjhu3Mr4Sx1a7lu-97" value="" style="outlineConnect=0;fontColor=#232F3E;gradientColor=none;fillColor=#8C4FFF;strokeColor=none;dashed=0;verticalLabelPosition=bottom;verticalAlign=top;align=center;html=1;fontSize=12;fontStyle=0;aspect=fixed;pointerEvents=1;shape=mxgraph.aws4.internet_gateway;shadow=0;" parent="1" vertex="1">
          <mxGeometry x="188.04024390243907" y="-5.797619047619044" width="41.7142857142857" height="41.7142857142857" as="geometry" />
        </mxCell>
        <mxCell id="hZ9lXEjhu3Mr4Sx1a7lu-182" value="" style="edgeStyle=orthogonalEdgeStyle;rounded=0;orthogonalLoop=1;jettySize=auto;html=1;shadow=0;" parent="1" source="hZ9lXEjhu3Mr4Sx1a7lu-97" target="hZ9lXEjhu3Mr4Sx1a7lu-146" edge="1">
          <mxGeometry relative="1" as="geometry" />
        </mxCell>
        <mxCell id="mEpeG0kxl6d0wTUPfOJw-19" value="" style="edgeStyle=orthogonalEdgeStyle;rounded=0;orthogonalLoop=1;jettySize=auto;html=1;" edge="1" parent="1" source="mEpeG0kxl6d0wTUPfOJw-18" target="hZ9lXEjhu3Mr4Sx1a7lu-97">
          <mxGeometry relative="1" as="geometry" />
        </mxCell>
        <mxCell id="mEpeG0kxl6d0wTUPfOJw-18" value="" style="html=1;verticalLabelPosition=bottom;align=center;labelBackgroundColor=#ffffff;verticalAlign=top;strokeWidth=2;strokeColor=#0080F0;shadow=0;dashed=0;shape=mxgraph.ios7.icons.user;" vertex="1" parent="1">
          <mxGeometry x="193.9" y="-110" width="30" height="30" as="geometry" />
        </mxCell>
        <mxCell id="mEpeG0kxl6d0wTUPfOJw-20" value="&lt;b&gt;User&lt;/b&gt;" style="text;html=1;align=center;verticalAlign=middle;resizable=0;points=[];autosize=1;strokeColor=none;fillColor=none;" vertex="1" parent="1">
          <mxGeometry x="220" y="-110" width="50" height="30" as="geometry" />
        </mxCell>
      </root>
    </mxGraphModel>
  </diagram>
</mxfile>
